<svg width="512" height="512" viewBox="0 0 512 512" fill="none" xmlns="http://www.w3.org/2000/svg">
<path d="M477.035 150.181C477.043 154.328 476.02 158.412 474.056 162.065C472.093 165.717 469.252 168.824 465.789 171.106C462.327 173.387 458.351 174.772 454.22 175.134C450.089 175.496 445.932 174.825 442.125 173.181L379.835 323.441H130.915L68.6753 173.251C63.0506 175.612 56.7568 175.835 50.9793 173.878C45.2017 171.921 40.339 167.919 37.307 162.626C34.275 157.333 33.2828 151.114 34.5174 145.14C35.752 139.166 39.1281 133.85 44.0099 130.192C48.8918 126.535 54.9424 124.788 61.0225 125.282C67.1025 125.775 72.7923 128.474 77.0204 132.871C81.2485 137.268 83.7231 143.06 83.9782 149.154C84.2333 155.249 82.2512 161.227 78.4053 165.961L165.405 237.161L186.325 110.761C180.436 109.716 175.117 106.594 171.333 101.962C167.549 97.3301 165.551 91.4949 165.702 85.5155C165.853 79.5362 168.142 73.8091 172.155 69.3737C176.168 64.9384 181.638 62.0886 187.572 61.3418C193.507 60.5949 199.512 62.0005 204.499 65.3033C209.485 68.6061 213.123 73.5873 214.75 79.3428C216.378 85.0982 215.888 91.2466 213.37 96.6718C210.852 102.097 206.472 106.44 201.025 108.911L255.335 225.911L309.755 108.611C304.342 106.058 300.024 101.648 297.587 96.1816C295.149 90.7152 294.754 84.5558 296.472 78.8225C298.19 73.0893 301.908 68.1628 306.951 64.9383C311.993 61.7138 318.025 60.4053 323.95 61.2506C329.875 62.0959 335.301 65.0389 339.24 69.5448C343.18 74.0506 345.372 79.8203 345.419 85.8053C345.465 91.7904 343.363 97.5935 339.494 102.16C335.625 106.727 330.247 109.754 324.335 110.691L345.265 237.111L432.525 165.811C430.027 162.694 428.313 159.022 427.525 155.106C426.738 151.189 426.901 147.14 428.001 143.299C429.1 139.458 431.104 135.937 433.845 133.03C436.585 130.123 439.983 127.915 443.752 126.592C447.522 125.268 451.554 124.867 455.51 125.422C459.466 125.977 463.232 127.473 466.492 129.783C469.751 132.093 472.409 135.151 474.244 138.7C476.078 142.249 477.036 146.186 477.035 150.181V150.181ZM405.375 391.431H105.375V451.431H405.375V391.431ZM377.625 339.431H133.405V375.431H377.625V339.431Z" fill="#1E90FF"/>
</svg>
